<?xml version="1.0" encoding="UTF-8" standalone="no"?>
<!DOCTYPE svg PUBLIC "-//W3C//DTD SVG 1.1//EN" "http://www.w3.org/Graphics/SVG/1.1/DTD/svg11.dtd">
<svg width="100%" height="100%" viewBox="0 0 429 93" version="1.1" xmlns="http://www.w3.org/2000/svg" xmlns:xlink="http://www.w3.org/1999/xlink" xml:space="preserve" style="fill-rule:evenodd;clip-rule:evenodd;stroke-linejoin:round;stroke-miterlimit:1.41421;">
    <g>
        <rect x="-36.1" y="-36.1" width="500.8" height="164.5" style="fill:white;"/>
        <g>
            <circle cx="46.1" cy="46.1" r="46.1" style="fill:rgb(245,187,96);"/>
            <circle cx="41.5" cy="41.5" r="41.5" style="fill:rgb(232,111,50);"/>
            <circle cx="47" cy="36" r="36" style="fill:rgb(229,61,66);"/>
            <circle cx="49.9" cy="38.8" r="33.1" style="fill:rgb(191,209,65);"/>
            <circle cx="47.5" cy="41.3" r="30.7" style="fill:rgb(109,182,76);"/>
            <circle cx="42.6" cy="36.4" r="25.8" style="fill:rgb(175,219,231);"/>
            <circle cx="46.8" cy="32.2" r="21.6" style="fill:rgb(87,186,223);"/>
            <circle cx="49.5" cy="34.8" r="19" style="fill:rgb(2,178,214);"/>
            <circle cx="46.7" cy="37.6" r="16.2" style="fill:url(#_Radial1);"/>
            <circle cx="46.7" cy="37.6" r="16.2" style="fill:rgb(35,31,32);"/>
            <g transform="matrix(0.9124,0.4094,-0.4094,0.9124,17.6285,-19.0074)">
                <ellipse cx="53.2" cy="31.7" rx="3.2" ry="5" style="fill:white;"/>
            </g>
        </g>
        <path d="M107.1,28.5C107.1,28.2 107.3,28 107.7,28L122.2,28C130.5,28 134.4,31.8 134.4,37.6C134.4,41.7 132.3,44 129.9,45.2L129.9,45.3C132.3,46.1 135.1,49 135.1,53.4C135.1,60.6 130.2,64 121.7,64L107.7,64C107.4,64 107.1,63.8 107.1,63.5L107.1,28.5L107.1,28.5ZM122,43C125.4,43 127.6,41.1 127.6,38.3C127.6,35.4 125.5,33.5 122,33.5L114.2,33.5C114,33.5 113.9,33.6 113.9,33.8L113.9,42.7C113.9,42.9 114,43 114.2,43L122,43ZM114.2,58.5L122.4,58.5C126.2,58.5 128.3,56.5 128.3,53.5C128.3,50.5 126.2,48.5 122.4,48.5L114.2,48.5C114,48.5 113.9,48.6 113.9,48.8L113.9,58.2C113.9,58.4 114,58.5 114.2,58.5Z" style="fill:rgb(56,47,39);fill-rule:nonzero;"/>
        <path d="M139.8,64.1C139.5,64.1 139.2,63.9 139.2,63.6L139.2,39C139.2,38.7 139.4,38.5 139.8,38.5L145.1,38.5C145.4,38.5 145.7,38.7 145.7,39L145.7,41.2L145.8,41.2C147.1,39.2 149.5,37.9 153,37.9C155.2,37.9 157.4,38.7 158.8,40C159.1,40.3 159.1,40.5 158.9,40.7L155.9,44.3C155.7,44.6 155.4,44.6 155.1,44.4C153.8,43.7 152.5,43.2 151,43.2C147.4,43.2 145.8,45.6 145.8,49.7L145.8,63.6C145.8,63.9 145.6,64.1 145.2,64.1L139.8,64.1L139.8,64.1Z" style="fill:rgb(56,47,39);fill-rule:nonzero;"/>
        <path d="M159.9,57.6C159.3,55.8 159,54.1 159,51.3C159,48.5 159.3,46.8 159.9,45C161.5,40.5 165.7,37.9 171.3,37.9C176.9,37.9 181.1,40.5 182.7,45C183.3,46.8 183.6,48.5 183.6,51.3C183.6,54.1 183.3,55.8 182.7,57.6C181.1,62.1 176.9,64.7 171.3,64.7C165.7,64.6 161.5,62 159.9,57.6ZM176.5,56C177,54.7 177.1,53.5 177.1,51.3C177.1,49.1 177,48 176.5,46.6C175.7,44.5 173.9,43.3 171.3,43.3C168.7,43.3 166.9,44.5 166.1,46.6C165.6,48 165.5,49.1 165.5,51.3C165.5,53.5 165.6,54.7 166.1,56C166.9,58.1 168.7,59.3 171.3,59.3C173.9,59.3 175.7,58.1 176.5,56Z" style="fill:rgb(56,47,39);fill-rule:nonzero;"/>
        <path d="M211.5,64.1C211.2,64.1 210.9,63.9 210.8,63.6L205.5,47.2L205.4,47.2L200,63.6C199.9,63.9 199.7,64.1 199.3,64.1L194.6,64.1C194.3,64.1 194,63.9 193.9,63.6L185.1,39C185,38.7 185.2,38.5 185.5,38.5L191,38.5C191.4,38.5 191.6,38.7 191.7,39L197,55.9L197.1,55.9L202.4,39C202.5,38.7 202.8,38.5 203.1,38.5L207.2,38.5C207.5,38.5 207.8,38.7 207.9,39L213.5,55.9L213.6,55.9L218.7,39C218.8,38.6 219,38.5 219.4,38.5L224.9,38.5C225.2,38.5 225.4,38.7 225.3,39L216.6,63.5C216.5,63.8 216.3,64 215.9,64L211.5,64L211.5,64.1Z" style="fill:rgb(56,47,39);fill-rule:nonzero;"/>
        <path d="M226.7,60.6C226.5,60.4 226.5,60.1 226.7,59.9L230,56.7C230.2,56.5 230.6,56.5 230.8,56.7C232.8,58.4 236,59.6 238.9,59.6C242.3,59.6 244,58.3 244,56.6C244,55.1 243,54.1 239.4,53.8L236.4,53.5C230.8,53 227.9,50.3 227.9,46C227.9,41.1 231.7,37.9 238.6,37.9C242.9,37.9 246.5,39.2 249,41C249.3,41.2 249.3,41.5 249.1,41.7L246.3,44.8C246.1,45.1 245.8,45.1 245.5,44.9C243.8,43.8 241,42.8 238.3,42.8C235.5,42.8 234.1,43.9 234.1,45.5C234.1,47 235.1,47.9 238.6,48.2L241.6,48.5C247.4,49 250.2,51.8 250.2,56C250.2,61.1 246.2,64.7 238.6,64.7C232.9,64.6 229,62.6 226.7,60.6Z" style="fill:rgb(56,47,39);fill-rule:nonzero;"/>
        <path d="M254.6,57.5C254,55.9 253.6,53.9 253.6,51.2C253.6,48.5 253.9,46.5 254.5,44.9C256.1,40.4 260.3,37.8 265.8,37.8C271.5,37.8 275.6,40.5 277.2,44.9C277.8,46.7 278.1,48.5 278.1,52.6C278.1,52.9 277.9,53.1 277.5,53.1L260.4,53.1C260.2,53.1 260.1,53.2 260.1,53.4C260.1,54.1 260.3,54.8 260.5,55.4C261.4,57.9 263.6,59.3 266.7,59.3C269.8,59.3 271.8,58.2 273.2,56.9C273.5,56.6 273.8,56.6 274.1,56.8L277.5,59.6C277.8,59.8 277.8,60.1 277.6,60.3C275.2,62.8 271.3,64.7 266.2,64.7C260.3,64.6 256.2,62 254.6,57.5ZM271.3,46.2C270.6,44.1 268.5,42.9 265.9,42.9C263.3,42.9 261.2,44.1 260.4,46.2C260.2,46.8 260.1,47.5 260.1,48.4C260.1,48.6 260.2,48.7 260.4,48.7L271.3,48.7C271.5,48.7 271.6,48.6 271.6,48.4C271.7,47.5 271.6,46.8 271.3,46.2Z" style="fill:rgb(56,47,39);fill-rule:nonzero;"/>
        <path d="M282.9,64.1C282.6,64.1 282.3,63.9 282.3,63.6L282.3,39C282.3,38.7 282.5,38.5 282.9,38.5L288.2,38.5C288.5,38.5 288.8,38.7 288.8,39L288.8,41.2L288.9,41.2C290.2,39.2 292.6,37.9 296.1,37.9C298.3,37.9 300.5,38.7 301.9,40C302.2,40.3 302.2,40.5 302,40.7L299,44.3C298.8,44.6 298.5,44.6 298.2,44.4C296.9,43.7 295.6,43.2 294.1,43.2C290.5,43.2 288.9,45.6 288.9,49.7L288.9,63.6C288.9,63.9 288.7,64.1 288.3,64.1L282.9,64.1L282.9,64.1Z" style="fill:rgb(56,47,39);fill-rule:nonzero;"/>
        <path d="M302.9,59.9C302.7,59.7 302.6,59.4 302.8,59.1L306.4,55.3C306.6,55 307,55 307.2,55.2C309.7,57.1 313.5,59 317.8,59C322.5,59 325.2,56.8 325.2,53.8C325.2,51.2 323.5,49.5 318.1,48.8L316,48.5C308.5,47.5 304.2,44.2 304.2,38.2C304.2,31.7 309.4,27.3 317.4,27.3C322.3,27.3 326.9,28.7 330,30.9C330.3,31.1 330.3,31.3 330.1,31.6L327.3,35.5C327.1,35.8 326.8,35.8 326.5,35.7C323.3,33.8 320.4,32.9 317.1,32.9C313.1,32.9 311,34.9 311,37.7C311,40.2 312.9,41.9 318.2,42.6L320.3,42.9C327.8,43.9 332,47.1 332,53.4C332,59.8 327,64.6 317.3,64.6C311.5,64.6 306,62.5 302.9,59.9Z" style="fill:rgb(56,47,39);fill-rule:nonzero;"/>
        <path d="M343.9,64.5C338.3,64.5 336.2,62 336.2,57L336.2,43.5C336.2,43.3 336.1,43.2 335.9,43.2L334,43.2C333.7,43.2 333.4,43 333.4,42.7L333.4,39.1C333.4,38.8 333.6,38.6 334,38.6L335.8,38.6C336,38.6 336.1,38.5 336.1,38.3L336.1,31.3C336.1,31 336.3,30.8 336.7,30.8L342,30.8C342.3,30.8 342.6,31 342.6,31.3L342.6,38.3C342.6,38.5 342.7,38.6 342.9,38.6L346.6,38.6C346.9,38.6 347.2,38.8 347.2,39.1L347.2,42.7C347.2,43 347,43.2 346.6,43.2L343,43.2C342.8,43.2 342.7,43.3 342.7,43.5L342.7,56.8C342.7,58.6 343.5,59.2 345.3,59.2L346.7,59.2C347,59.2 347.3,59.4 347.3,59.7L347.3,64C347.3,64.3 347.1,64.5 346.7,64.5L343.9,64.5Z" style="fill:rgb(56,47,39);fill-rule:nonzero;"/>
        <path d="M368.2,64.1C367.9,64.1 367.6,63.9 367.6,63.6L367.6,61.7L367.5,61.7C366.2,63.5 363.6,64.7 359.7,64.7C354.6,64.7 350.4,62.3 350.4,56.9C350.4,51.3 354.6,48.8 361.5,48.8L367.1,48.8C367.3,48.8 367.4,48.7 367.4,48.5L367.4,47.3C367.4,44.4 365.9,43.1 361.3,43.1C358.2,43.1 356.3,43.9 355,44.9C354.7,45.1 354.4,45.1 354.2,44.8L352.1,41.3C351.9,41 352,40.8 352.2,40.6C354.4,39.1 357.5,38.1 362,38.1C370.4,38.1 373.5,40.8 373.5,47L373.5,63.7C373.5,64 373.3,64.2 372.9,64.2L368.2,64.2L368.2,64.1ZM367.6,55.5L367.6,53.5C367.6,53.3 367.5,53.2 367.3,53.2L362.7,53.2C358.6,53.2 356.7,54.3 356.7,56.7C356.7,58.8 358.4,59.9 361.5,59.9C365.4,59.8 367.6,58.4 367.6,55.5Z" style="fill:rgb(56,47,39);fill-rule:nonzero;"/>
        <path d="M378.7,57.6C378.1,56 377.8,54 377.8,51.3C377.8,48.6 378.1,46.6 378.7,45C380.3,40.4 384.6,37.9 390.1,37.9C394.2,37.9 397.5,39.4 399.7,41.9C399.9,42.1 399.9,42.4 399.6,42.6L396,45.5C395.7,45.7 395.4,45.7 395.2,45.4C393.8,44 392.4,43.2 390.1,43.2C387.6,43.2 385.7,44.3 384.9,46.5C384.4,47.8 384.3,49.3 384.3,51.2C384.3,53.1 384.4,54.7 384.9,56C385.7,58.2 387.6,59.3 390.1,59.3C392.4,59.3 393.8,58.5 395.2,57.1C395.4,56.8 395.7,56.8 396,57L399.6,59.9C399.9,60.1 399.8,60.4 399.7,60.6C397.5,63 394.2,64.5 390.1,64.5C384.5,64.6 380.3,62.1 378.7,57.6Z" style="fill:rgb(56,47,39);fill-rule:nonzero;"/>
        <path d="M422.1,64.1C421.7,64.1 421.4,63.9 421.2,63.6L414.2,52.9L410.5,56.9L410.5,63.6C410.5,63.9 410.3,64.1 409.9,64.1L404.6,64.1C404.3,64.1 404,63.9 404,63.6L404,28.5C404,28.2 404.2,28 404.6,28L409.9,28C410.2,28 410.5,28.2 410.5,28.5L410.5,49.3L420,39C420.3,38.6 420.6,38.5 421.1,38.5L427,38.5C427.3,38.5 427.5,38.8 427.2,39L418.4,48.3L428.5,63.5C428.7,63.7 428.6,64 428.2,64L422.1,64L422.1,64.1Z" style="fill:rgb(56,47,39);fill-rule:nonzero;"/>
    </g>
    <defs>
        <radialGradient id="_Radial1" cx="0" cy="0" r="1" gradientUnits="userSpaceOnUse" gradientTransform="matrix(16.2385,0,0,16.2385,46.7294,37.5754)"><stop offset="0" style="stop-color:rgb(121,121,121);stop-opacity:1"/><stop offset="1" style="stop-color:rgb(76,76,76);stop-opacity:1"/></radialGradient>
    </defs>
</svg>
