<svg xmlns="http://www.w3.org/2000/svg" width="58" height="58" viewBox="0 0 58 58">
  <g fill="none" fill-rule="evenodd" transform="translate(0 .5)">
    <g fill="#9FACB5" fill-rule="nonzero">
      <path d="M37.0048326,33.6868452 L36.2792411,33.2403274 C30.1954353,30.4495908 24.7814062,33.2403274 24.7814062,33.2403274 L24,33.9101042 L24,35.1380283 L24.7814063,34.9147693 C24.7814063,34.9147693 30.1954353,32.1240327 36.2792411,34.9147693 L37.2280915,35.3612872 L37.0048326,33.6868452 Z"/>
      <circle cx="14.247" cy="33.247" r="5.247"/>
      <path d="M40.9680134,26.5218889 C42.4750112,25.6288532 44.2610826,25.1265206 46.1029687,25.1265206 C48.7820759,25.1265206 51.1821094,26.1311858 53.0239955,27.8056277 C53.0798103,27.8056277 53.1914397,27.8614425 53.2472545,27.8614425 C53.2472545,27.8614425 66.0846429,8.10302728 49.6192969,16.0287192 C49.6192969,16.0287192 31.2004353,-9.47861335 12.3350558,3.86110763 C12.3350558,3.86110763 15.2374219,5.42392013 16.2420871,6.81928844 C16.2420871,6.81928844 2.34421875,7.60069469 0,14.4659067 C0,14.4659067 4.07447545,14.0193889 4.01866071,15.0798688 C4.01866071,15.0798688 -1.33955357,15.861275 5.24658482,29.5916992 C7.08847098,26.8009625 10.2699107,24.9590764 13.8420536,24.9590764 C16.9676786,24.9590764 19.7584152,26.3544447 21.6561161,28.5312192 C24.2235937,28.0847014 27.293404,27.1358509 29.3027344,25.2939648 C29.3585491,25.2939648 44.5401562,22.0567103 40.9680134,26.5218889 Z"/>
      <path d="M14.3257254 23C8.63262277 23 4 27.6326228 4 33.3257254 4 39.0188281 8.63262277 43.6514509 14.3257254 43.6514509 20.0188281 43.6514509 24.6514509 39.0188281 24.6514509 33.3257254 24.6514509 27.6326228 20.0188281 23 14.3257254 23zM14.1582812 41.4746763C9.69310268 41.4746763 6.00933036 37.8467188 6.00933036 33.3257254 6.00933036 28.8605469 9.63728795 25.1767746 14.1582812 25.1767746 18.6234598 25.1767746 22.3072321 28.8047321 22.3072321 33.3257254 22.3072321 37.8467188 18.6792746 41.4746763 14.1582812 41.4746763zM46.3257254 23C40.6326228 23 36 27.6326228 36 33.3257254 36 39.0188281 40.6326228 43.6514509 46.3257254 43.6514509 52.0188281 43.6514509 56.6514509 39.0188281 56.6514509 33.3257254 56.6514509 27.6326228 52.0188281 23 46.3257254 23zM46.1489509 41.2979018C41.6837723 41.2979018 38 37.6699442 38 33.1489509 38 28.6837723 41.6279576 25 46.1489509 25 50.6699442 25 54.2979018 28.6279576 54.2979018 33.1489509 54.2420871 37.6699442 50.6141295 41.2979018 46.1489509 41.2979018z"/>
      <circle cx="46.247" cy="33.247" r="5.247"/>
      <path d="M40.0839732,42 L49.7957366,42.7814063 C49.7957366,42.7814063 57.0516518,53.8327232 29.1442857,57.0141629 L22,55.8978683 C22,55.8420536 44.4933371,50.4838393 40.0839732,42 Z"/>
    </g>
  </g>
</svg>
