<svg xmlns="http://www.w3.org/2000/svg" width="277" height="61"><g fill="none" fill-rule="evenodd"><g fill="#30A777" fill-rule="nonzero" transform="translate(0 .5)"><path d="M37.0048 35.6868l-.7256-.4465c-6.0838-2.7907-11.4978 0-11.4978 0L24 35.91v1.228l.7814-.2232s5.414-2.7908 11.4978 0l.949.4465-.2234-1.6745z"/><circle cx="14.247" cy="35.247" r="5.247"/><path d="M40.968 26.522c1.507-.893 3.293-1.3955 5.135-1.3955 2.679 0 5.079 1.0047 6.921 2.679.0558 0 .1674.056.2233.056 0 0 12.8373-19.7585-3.628-11.8328 0 0-18.419-25.5073-37.2842-12.1676 0 0 2.9027 1.563 3.907 2.9586 0 0-13.8975.7814-16.242 7.6466 0 0 4.0748-.4465 4.019.614 0 0-5.3583.7814 1.228 14.5118 1.8418-2.7907 5.023-4.6326 8.5954-4.6326 3.1257 0 5.9164 1.3955 7.814 3.5723 2.5676-.4465 5.6374-1.3953 7.6467-3.2372.0558 0 15.2375-3.2372 11.6653 1.228z"/><path d="M14.3257 25C8.6327 25 4 29.6326 4 35.3257c0 5.693 4.6326 10.3258 10.3257 10.3258 5.693 0 10.3258-4.6327 10.3258-10.3258C24.6515 29.6327 20.0188 25 14.3257 25zm-.1674 18.4747c-4.4652 0-8.149-3.628-8.149-8.149 0-4.4652 3.628-8.149 8.149-8.149 4.4652 0 8.149 3.628 8.149 8.149 0 4.521-3.628 8.149-8.149 8.149zM46.3257 25C40.6327 25 36 29.6326 36 35.3257c0 5.693 4.6326 10.3258 10.3257 10.3258 5.693 0 10.3258-4.6327 10.3258-10.3258C56.6515 29.6327 52.0188 25 46.3257 25zm-.1767 18.298c-4.4652 0-8.149-3.628-8.149-8.149C38 30.6838 41.628 27 46.149 27c4.521 0 8.149 3.628 8.149 8.149-.056 4.521-3.684 8.149-8.149 8.149z"/><circle cx="46.247" cy="35.247" r="5.247"/><path d="M40.084 44l9.7117.7814s7.256 11.0513-20.6514 14.2328L22 57.898c0-.056 22.4933-5.4142 18.084-13.898z"/></g><path fill="#000" fill-rule="nonzero" d="M75.192 35.636V33.62h2.112c.192 0 .336-.048.432-.192.096-.096.096-.336.096-.672V15.524c0-.336-.048-.576-.096-.672-.096-.096-.192-.144-.432-.144h-2.112v-2.016h8.592v2.016h-2.112c-.192 0-.336.048-.432.144-.096.096-.096.336-.096.672v17.232c0 .336.048.576.096.672.096.096.192.192.432.192h2.112v2.016h-8.592zm9.888 0V33.62H87c.192 0 .288-.048.384-.144.096-.096.096-.336.096-.624v-11.04c0-.384-.048-.624-.096-.72-.096-.144-.192-.192-.384-.192h-1.92v-2.016h1.872c1.44 0 2.688-.096 3.84-.336v3.936c.528-1.296 1.344-2.304 2.352-2.976 1.008-.672 2.208-1.008 3.552-1.008 3.552 0 5.328 1.968 5.328 5.952v8.4c0 .336.048.528.096.624.096.096.192.144.384.144h1.92v2.016h-8.016V33.62h1.776c.144 0 .288-.048.384-.144.096-.096.096-.336.096-.624V24.5c0-1.296-.24-2.256-.768-2.88-.528-.624-1.344-.912-2.496-.912-1.44 0-2.592.576-3.408 1.776-.816 1.2-1.248 2.88-1.248 5.04v5.28c0 .336.048.528.096.624.096.096.192.144.384.144h1.824v2.016H85.08v.048zm20.112-14.784v-1.824h.576c.096 0 .192 0 .336-.048.144-.048.24 0 .336-.048h.48c.48-.048.864-.192 1.104-.432.24-.192.384-.576.432-1.008l.288-3.024h2.304v4.368h3.6v2.016h-3.696v10.224c0 .96.192 1.584.576 2.016.384.384.96.624 1.776.624.432 0 1.056-.096 1.776-.336v2.16c-.864.288-1.776.432-2.64.432-1.68 0-2.928-.384-3.648-1.104-.72-.72-1.104-1.968-1.104-3.648V20.852h-2.496zm11.136 6.288c0-2.544.768-4.656 2.352-6.288 1.584-1.632 3.6-2.448 6.096-2.448s4.416.768 5.808 2.304c1.392 1.536 2.112 3.6 2.112 6.24v.816H119.64c.048 1.872.528 3.36 1.536 4.512.96 1.152 2.352 1.728 4.128 1.728 2.688 0 4.464-1.344 5.28-3.984l2.016.864c-.432 1.536-1.296 2.784-2.544 3.744-1.248.96-2.928 1.392-4.992 1.392-2.736 0-4.848-.816-6.384-2.448-1.584-1.632-2.352-3.792-2.352-6.432zm3.264-1.344h9.792c-.048-3.552-1.632-5.328-4.608-5.328-1.536 0-2.736.48-3.648 1.392-.912.912-1.392 2.208-1.536 3.936zm14.544-4.944v-2.016h1.872c1.44 0 2.736-.096 3.888-.336v3.936c.432-1.392 1.008-2.4 1.824-3.024.816-.624 1.728-.96 2.784-.96 1.152 0 2.064.336 2.736 1.008.672.672 1.008 1.536 1.008 2.64 0 .864-.24 1.584-.672 2.112-.432.528-1.056.816-1.776.816-.48 0-.912-.192-1.296-.528s-.528-.768-.528-1.248c0-.384.144-.768.384-1.104.24-.336.624-.576 1.056-.672-.096-.192-.288-.384-.528-.528-.24-.144-.576-.24-.96-.24-1.296 0-2.256.576-2.928 1.728-.672 1.152-1.008 2.736-1.008 4.752v5.616c0 .336.048.528.096.624.096.096.192.144.384.144h2.112v2.016h-8.304V33.62h1.92c.192 0 .288-.048.384-.144.096-.096.096-.336.096-.624v-11.04c0-.384-.048-.624-.096-.72-.096-.144-.192-.192-.384-.192h-2.064v-.048zm15.072 14.784V33.62h1.92c.192 0 .288-.048.384-.144.096-.096.096-.336.096-.624v-11.04c0-.384-.048-.624-.096-.72-.048-.096-.192-.192-.384-.192h-1.92v-2.016h1.872c1.44 0 2.688-.096 3.84-.336v3.936c.528-1.296 1.344-2.304 2.352-2.976 1.008-.672 2.208-1.008 3.552-1.008 3.552 0 5.328 1.968 5.328 5.952v8.4c0 .336.048.528.096.624.048.096.192.144.384.144h1.92v2.016h-8.016V33.62h1.776c.144 0 .288-.048.384-.144.096-.096.096-.336.096-.624V24.5c0-1.296-.24-2.256-.768-2.88-.528-.624-1.344-.912-2.496-.912-1.44 0-2.592.576-3.408 1.776-.816 1.2-1.248 2.88-1.248 5.04v5.28c0 .336.048.528.096.624.096.096.192.144.384.144h1.824v2.016h-7.968v.048zm21.6-.192c-.384-.432-.624-.96-.624-1.584 0-.624.192-1.152.624-1.584.384-.432.912-.624 1.584-.624s1.152.192 1.584.624c.432.432.624.96.624 1.584 0 .624-.192 1.152-.624 1.584-.432.432-.96.624-1.584.624-.624 0-1.152-.24-1.584-.624z"/><path fill="#323B43" d="M83 53.524c0 1.0133-.3547 1.7893-1.064 2.328s-1.6293.808-2.76.808c-.6933 0-1.3493-.0827-1.968-.248s-1.1093-.3867-1.472-.664l.24-2.208 1.168.112-.032 1.296c.352.1813.6907.3013 1.016.36.3253.0587.648.088.968.088.6613 0 1.2187-.1253 1.672-.376.4533-.2507.68-.7013.68-1.352 0-.7253-.2533-1.2027-.76-1.432-.5067-.2293-1.0747-.408-1.704-.536-.5013-.1067-.9947-.24-1.48-.4-.4853-.16-.8907-.424-1.216-.792-.3253-.368-.488-.904-.488-1.608 0-1.0347.3467-1.7867 1.04-2.256.6933-.4693 1.4933-.704 2.4-.704.608 0 1.2107.088 1.808.264.5973.176 1.0613.4027 1.392.68l.096 2.128-1.168.112-.176-1.456c-.3093-.1707-.624-.288-.944-.352-.32-.064-.624-.096-.912-.096-.5867 0-1.064.128-1.432.384-.368.256-.552.6347-.552 1.136 0 .5867.224.984.672 1.192.448.208.944.376 1.488.504.448.096.944.2267 1.488.392s1.0133.4507 1.408.856c.3947.4053.592 1.0187.592 1.84zm8.384-.592c0 1.0987-.3387 1.9947-1.016 2.688-.6773.6933-1.5707 1.04-2.68 1.04-1.088 0-1.9493-.336-2.584-1.008-.6347-.672-.952-1.5573-.952-2.656 0-1.0453.304-1.9413.912-2.688.608-.7467 1.5147-1.12 2.72-1.12 1.2053 0 2.1067.3707 2.704 1.112.5973.7413.896 1.6187.896 2.632zm-1.472-.048c0-.7893-.1947-1.4133-.584-1.872-.3893-.4587-.9147-.688-1.576-.688-.6933 0-1.224.2427-1.592.728-.368.4853-.552 1.1067-.552 1.864 0 .7253.1787 1.3413.536 1.848.3573.5067.888.76 1.592.76.6933 0 1.2293-.248 1.608-.744.3787-.496.568-1.128.568-1.896zm6.176-7.552c.3307 0 .648.0373.952.112.304.0747.5893.2187.856.432l.288 1.744-1.12.144-.304-1.2c-.224-.0747-.4747-.112-.752-.112-.7573 0-1.136.4907-1.136 1.472v1.424h1.84v1.072h-1.84v4.992h1.504V56.5h-4.064v-1.088h1.168V50.42h-.992v-1.072h.992v-1.264c0-.8107.2453-1.472.736-1.984s1.1147-.768 1.872-.768zm7.072 9.152c-.2027 1.4507-1.0027 2.176-2.4 2.176-.736 0-1.3093-.2-1.72-.6-.4107-.4-.616-.9573-.616-1.672V50.42H97.32v-1.072h1.104v-2.256h1.392v2.256h2.736v1.072h-2.736v3.76c0 .8533.368 1.28 1.104 1.28.2347 0 .4693-.0773.704-.232.2347-.1547.4-.5147.496-1.08l1.04.336zm12.096-4.032h-.768l-2.064 6.048h-1.056l-2.08-5.104h-.08l-2.016 5.104h-1.008l-2.128-6.048h-.736v-1.104h3.488v1.104h-1.248l1.312 4h.08l1.984-5.104h.896l2.144 5.088h.096l1.104-3.984h-1.2v-1.104h3.28v1.104zm1.392-.56c.4373-.256.8667-.4347 1.288-.536.4213-.1013.8827-.152 1.384-.152.8107 0 1.4533.1973 1.928.592.4747.3947.712 1.0027.712 1.824v3.312c0 .4693.1867.704.56.704.1493 0 .2933-.0267.432-.08l.016.832c-.2987.1813-.6453.272-1.04.272-.864 0-1.3227-.48-1.376-1.44v-.016c-.2133.3733-.52.7093-.92 1.008-.4.2987-.888.448-1.464.448-.4907 0-.9787-.1493-1.464-.448-.4853-.2987-.728-.8213-.728-1.568 0-.896.3547-1.4853 1.064-1.768.7093-.2827 1.4693-.424 2.28-.424.4907 0 .9013.0213 1.232.064v-.528c0-.4693-.0907-.8693-.272-1.2-.1813-.3307-.5867-.496-1.216-.496-.512 0-.944.0907-1.296.272l-.272 1.168-1.136-.128.288-1.712zm3.904 3.856v-.416c-.192-.0213-.392-.04-.6-.056-.208-.016-.4187-.024-.632-.024-.4907 0-.928.08-1.312.24-.384.16-.576.4907-.576.992 0 .384.12.6613.36.832.24.1707.5147.256.824.256.4587 0 .8853-.16 1.28-.48.3947-.32.6133-.768.656-1.344zm7.376-4.512c.5013 0 .928.128 1.28.384l.288 2-1.104.128-.272-1.232c-.1813-.0747-.368-.112-.56-.112-.3627 0-.6667.152-.912.456-.2453.304-.368.7013-.368 1.192v3.36h1.536V56.5h-4.096v-1.088h1.152v-4.96h-1.2v-1.104h2.512v1.312c.1387-.4053.3547-.744.648-1.016s.6587-.408 1.096-.408zm9.216 5.152c-.0747.6187-.3787 1.152-.912 1.6-.5333.448-1.2587.672-2.176.672-1.0347 0-1.872-.3093-2.512-.928-.64-.6187-.96-1.5147-.96-2.688 0-1.1093.2987-2.0267.896-2.752.5973-.7253 1.424-1.088 2.48-1.088.9813 0 1.744.304 2.288.912.544.608.8213 1.344.832 2.208 0 .288-.032.592-.096.912h-4.928c.064 1.5147.7627 2.272 2.096 2.272.5547 0 .9733-.1333 1.256-.4.2827-.2667.472-.5867.568-.96l1.168.24zm-1.52-2.096c.0427-.4693-.072-.92-.344-1.352-.272-.432-.7227-.648-1.352-.648-.5867 0-1.0267.1947-1.32.584-.2933.3893-.472.8613-.536 1.416h3.552zm11.52 2.192c-.2027 1.4507-1.0027 2.176-2.4 2.176-.736 0-1.3093-.2-1.72-.6-.4107-.4-.616-.9573-.616-1.672V50.42h-1.104v-1.072h1.104v-2.256h1.392v2.256h2.736v1.072H143.8v3.76c0 .8533.368 1.28 1.104 1.28.2347 0 .4693-.0773.704-.232.2347-.1547.4-.5147.496-1.08l1.04.336zm7.104-.096c-.0747.6187-.3787 1.152-.912 1.6-.5333.448-1.2587.672-2.176.672-1.0347 0-1.872-.3093-2.512-.928-.64-.6187-.96-1.5147-.96-2.688 0-1.1093.2987-2.0267.896-2.752.5973-.7253 1.424-1.088 2.48-1.088.9813 0 1.744.304 2.288.912.544.608.8213 1.344.832 2.208 0 .288-.032.592-.096.912h-4.928c.064 1.5147.7627 2.272 2.096 2.272.5547 0 .9733-.1333 1.256-.4.2827-.2667.472-.5867.568-.96l1.168.24zm-1.52-2.096c.0427-.4693-.072-.92-.344-1.352-.272-.432-.7227-.648-1.352-.648-.5867 0-1.0267.1947-1.32.584-.2933.3893-.472.8613-.536 1.416h3.552zm8.56 2.112c0 .7147-.296 1.2693-.888 1.664-.592.3947-1.3413.592-2.248.592-1.0987 0-2.032-.2347-2.8-.704l.224-1.728 1.104.112-.032.928c.2133.1067.4453.1813.696.224.2507.0427.4987.064.744.064.4587 0 .872-.0853 1.24-.256.368-.1707.552-.4373.552-.8 0-.352-.1493-.6-.448-.744-.2987-.144-.6693-.2533-1.112-.328-.4427-.0747-.8827-.168-1.32-.28-.4373-.112-.8053-.304-1.104-.576-.2987-.272-.448-.6853-.448-1.24 0-.8.296-1.3547.888-1.664.592-.3093 1.224-.464 1.896-.464.4907 0 .952.0613 1.384.184.432.1227.824.28 1.176.472l.16 1.728-1.12.128-.16-1.12c-.4373-.2027-.896-.304-1.376-.304-.3947 0-.72.0747-.976.224s-.384.3947-.384.736c0 .3307.1467.5653.44.704.2933.1387.656.2427 1.088.312.432.0693.864.1627 1.296.28.432.1173.7947.3147 1.088.592.2933.2773.44.6987.44 1.264zm6.608.08c-.2027 1.4507-1.0027 2.176-2.4 2.176-.736 0-1.3093-.2-1.72-.6-.4107-.4-.616-.9573-.616-1.672V50.42h-1.104v-1.072h1.104v-2.256h1.392v2.256h2.736v1.072h-2.736v3.76c0 .8533.368 1.28 1.104 1.28.2347 0 .4693-.0773.704-.232.2347-.1547.4-.5147.496-1.08l1.04.336zm1.616-6.816V46.02h1.456v1.648h-1.456zm2.656 8.832h-3.728v-1.088h1.168v-4.96h-1.216v-1.104h2.624v6.064h1.152V56.5zm9.424 0h-3.712v-1.088h1.152v-3.088c0-.7253-.1387-1.24-.416-1.544-.2773-.304-.6453-.456-1.104-.456-.5973 0-1.072.1973-1.424.592-.352.3947-.5387.8533-.56 1.376v3.12h1.152V56.5h-3.712v-1.088h1.152v-4.96h-1.2v-1.104h2.608v1.216c.5013-.9067 1.312-1.36 2.432-1.36.6933 0 1.28.2133 1.76.64s.72 1.0933.72 2v3.568h1.152V56.5zm8.768-6.048h-1.104v5.872c0 1.1307-.312 2.0373-.936 2.72-.624.6827-1.5227 1.024-2.696 1.024-.7467 0-1.4293-.168-2.048-.504-.6187-.336-1.04-.8773-1.264-1.624l1.088-.56c.2027.5227.512.9067.928 1.152.416.2453.8587.368 1.328.368.64 0 1.168-.224 1.584-.672.416-.448.624-1.0933.624-1.936v-1.2c-.2133.4053-.5173.752-.912 1.04-.3947.288-.9227.432-1.584.432-.8533 0-1.5813-.296-2.184-.888-.6027-.592-.904-1.4533-.904-2.584 0-.9813.2667-1.8747.8-2.68.5333-.8053 1.3387-1.208 2.416-1.208 1.1093 0 1.8987.4213 2.368 1.264v-1.12h2.496v1.104zm-2.496 2.816v-.928c0-.5973-.192-1.0773-.576-1.44-.384-.3627-.848-.544-1.392-.544-.704 0-1.2267.2533-1.568.76-.3413.5067-.512 1.1333-.512 1.88 0 .8213.184 1.4293.552 1.824.368.3947.8187.592 1.352.592.64 0 1.152-.224 1.536-.672.384-.448.5867-.9387.608-1.472zm10.4-7.936c.3307 0 .648.0373.952.112.304.0747.5893.2187.856.432l.288 1.744-1.12.144-.304-1.2c-.224-.0747-.4747-.112-.752-.112-.7573 0-1.136.4907-1.136 1.472v1.424h1.84v1.072h-1.84v4.992h1.504V56.5h-4.064v-1.088h1.168V50.42h-.992v-1.072h.992v-1.264c0-.8107.2453-1.472.736-1.984s1.1147-.768 1.872-.768zm8.768 7.6c0 1.0987-.3387 1.9947-1.016 2.688-.6773.6933-1.5707 1.04-2.68 1.04-1.088 0-1.9493-.336-2.584-1.008-.6347-.672-.952-1.5573-.952-2.656 0-1.0453.304-1.9413.912-2.688.608-.7467 1.5147-1.12 2.72-1.12 1.2053 0 2.1067.3707 2.704 1.112.5973.7413.896 1.6187.896 2.632zm-1.472-.048c0-.7893-.1947-1.4133-.584-1.872-.3893-.4587-.9147-.688-1.576-.688-.6933 0-1.224.2427-1.592.728-.368.4853-.552 1.1067-.552 1.864 0 .7253.1787 1.3413.536 1.848.3573.5067.888.76 1.592.76.6933 0 1.2293-.248 1.608-.744.3787-.496.568-1.128.568-1.896zm6.672-3.648c.5013 0 .928.128 1.28.384l.288 2-1.104.128-.272-1.232c-.1813-.0747-.368-.112-.56-.112-.3627 0-.6667.152-.912.456-.2453.304-.368.7013-.368 1.192v3.36h1.536V56.5h-4.096v-1.088h1.152v-4.96h-1.2v-1.104h2.512v1.312c.1387-.4053.3547-.744.648-1.016s.6587-.408 1.096-.408zm14.48 7.264h-3.728v-1.088h1.168v-3.088c0-.7253-.144-1.24-.432-1.544-.288-.304-.6667-.456-1.136-.456-.576 0-1.04.1947-1.392.584-.352.3893-.5387.8347-.56 1.336v3.168h1.168V56.5h-3.712v-1.088h1.152v-8.816h-1.152v-1.104h2.544v5.088c.5227-.9173 1.3387-1.376 2.448-1.376.6933 0 1.28.2133 1.76.64s.72 1.0933.72 2v3.568h1.152V56.5zm9.008 0h-2.608v-1.28c-.4907.96-1.296 1.44-2.416 1.44-.6933 0-1.2827-.2133-1.768-.64-.4853-.4267-.728-1.0987-.728-2.016v-3.552h-1.152v-1.104h2.56v4.192c0 .7253.1413 1.2373.424 1.536.2827.2987.664.448 1.144.448.576 0 1.04-.2107 1.392-.632.352-.4213.5333-.888.544-1.4v-3.04h-1.392v-1.104h2.8v6.064h1.2V56.5zm13.952 0h-3.296v-1.088h.736v-3.088c0-.7253-.136-1.24-.408-1.544-.272-.304-.6373-.456-1.096-.456-.6187 0-1.08.224-1.384.672-.304.448-.4613.9013-.472 1.36v3.056h1.152V56.5h-3.296v-1.088h.736v-3.088c0-.736-.136-1.2533-.408-1.552-.272-.2987-.632-.448-1.08-.448-.608 0-1.0667.2187-1.376.656-.3093.4373-.4693.8853-.48 1.344v3.088h1.328V56.5h-3.888v-1.088h1.152v-4.96h-1.168v-1.104H239v1.264c.224-.416.528-.7547.912-1.016s.8533-.392 1.408-.392c.544 0 1.024.136 1.44.408.416.272.704.6907.864 1.256.2133-.4907.528-.8907.944-1.2.416-.3093.9227-.464 1.52-.464.672 0 1.2427.2133 1.712.64.4693.4267.704 1.0933.704 2v3.568h1.168V56.5zm1.392-6.608c.4373-.256.8667-.4347 1.288-.536.4213-.1013.8827-.152 1.384-.152.8107 0 1.4533.1973 1.928.592.4747.3947.712 1.0027.712 1.824v3.312c0 .4693.1867.704.56.704.1493 0 .2933-.0267.432-.08l.016.832c-.2987.1813-.6453.272-1.04.272-.864 0-1.3227-.48-1.376-1.44v-.016c-.2133.3733-.52.7093-.92 1.008-.4.2987-.888.448-1.464.448-.4907 0-.9787-.1493-1.464-.448-.4853-.2987-.728-.8213-.728-1.568 0-.896.3547-1.4853 1.064-1.768.7093-.2827 1.4693-.424 2.28-.424.4907 0 .9013.0213 1.232.064v-.528c0-.4693-.0907-.8693-.272-1.2-.1813-.3307-.5867-.496-1.216-.496-.512 0-.944.0907-1.296.272l-.272 1.168-1.136-.128.288-1.712zm3.904 3.856v-.416c-.192-.0213-.392-.04-.6-.056-.208-.016-.4187-.024-.632-.024-.4907 0-.928.08-1.312.24-.384.16-.576.4907-.576.992 0 .384.12.6613.36.832.24.1707.5147.256.824.256.4587 0 .8853-.16 1.28-.48.3947-.32.6133-.768.656-1.344zM266.76 56.5h-3.712v-1.088h1.152v-3.088c0-.7253-.1387-1.24-.416-1.544-.2773-.304-.6453-.456-1.104-.456-.5973 0-1.072.1973-1.424.592-.352.3947-.5387.8533-.56 1.376v3.12h1.152V56.5h-3.712v-1.088h1.152v-4.96h-1.2v-1.104h2.608v1.216c.5013-.9067 1.312-1.36 2.432-1.36.6933 0 1.28.2133 1.76.64s.72 1.0933.72 2v3.568h1.152V56.5zm6.704-2.096c0 .7147-.296 1.2693-.888 1.664-.592.3947-1.3413.592-2.248.592-1.0987 0-2.032-.2347-2.8-.704l.224-1.728 1.104.112-.032.928c.2133.1067.4453.1813.696.224.2507.0427.4987.064.744.064.4587 0 .872-.0853 1.24-.256.368-.1707.552-.4373.552-.8 0-.352-.1493-.6-.448-.744-.2987-.144-.6693-.2533-1.112-.328-.4427-.0747-.8827-.168-1.32-.28-.4373-.112-.8053-.304-1.104-.576-.2987-.272-.448-.6853-.448-1.24 0-.8.296-1.3547.888-1.664.592-.3093 1.224-.464 1.896-.464.4907 0 .952.0613 1.384.184.432.1227.824.28 1.176.472l.16 1.728-1.12.128-.16-1.12c-.4373-.2027-.896-.304-1.376-.304-.3947 0-.72.0747-.976.224s-.384.3947-.384.736c0 .3307.1467.5653.44.704.2933.1387.656.2427 1.088.312.432.0693.864.1627 1.296.28.432.1173.7947.3147 1.088.592.2933.2773.44.6987.44 1.264zm1.376 2.096v-1.984h1.824V56.5h-1.824z"/></g></svg>