<?xml version="1.0" encoding="utf-8"?>
<!-- Generator: Adobe Illustrator 21.1.0, SVG Export Plug-In . SVG Version: 6.00 Build 0)  -->
<svg version="1.1" id="Layer_1" xmlns="http://www.w3.org/2000/svg" xmlns:xlink="http://www.w3.org/1999/xlink" x="0px" y="0px"
	 viewBox="0 0 580 425" style="enable-background:new 0 0 580 425;" xml:space="preserve">
<style type="text/css">
	.st0{fill:#EAEFEF;}
	.st1{fill:none;stroke:#9DA7AA;stroke-miterlimit:10;}
	.st2{fill:#FFFFFF;}
	.st3{fill:#464C55;}
	.st4{fill:#03FF8C;}
	.st5{fill:#B0E4FE;}
	.st6{fill:#FFFFFF;stroke:#B2B2B2;stroke-width:2;stroke-miterlimit:10;}
	.st7{fill:#E8ECEF;}
	.st8{fill:#B0E4FE;stroke:#2CC7FF;stroke-width:2;stroke-miterlimit:10;}
	.st9{fill:#888AF1;stroke:#48337C;stroke-width:2;stroke-miterlimit:10;}
</style>
<g class="cogLarge" transform="matrix( 0.919189453125, 0.393798828125, -0.393798828125, 0.919189453125, 62.25,14.95) ">
	<g transform="matrix( 1.8740692138671875, 0, 0, 1.8740692138671875, -1.2,-1.1) ">
		<g transform="matrix( 1, 0, 0, 1, 0,0) ">
			<g>
				<g id="FlashAICB_Layer_1__Compound_Path__0_Layer0_0_FILL">
					<path class="st0" d="M88,14.3c-1.2-0.2-3.2,1-6,3.4c-2.3-1.9-4.9-3.5-7.6-5c1.1-3.5,1.3-5.8,0.6-6.8c-0.1-0.2-1-0.6-2.6-1.2
						c-1.7-0.6-2.6-0.9-2.7-0.8c-1.1,0.3-2.5,2.1-4.1,5.4c-2.8-0.8-5.3-1.3-7.8-1.5C57.6,4,57,1.7,56,0.9c-0.3-0.2-1.2-0.3-2.9-0.3
						c-1.7,0-2.6,0.1-2.9,0.3c-1,0.8-1.6,3.1-1.9,6.9c-3,0.3-6.1,0.9-9.4,2c-1.7-3.2-3.2-5-4.4-5.3c-0.2,0-1.1,0.3-2.7,1
						c-1.6,0.7-2.4,1.2-2.5,1.4c-0.6,1.1-0.3,3.3,0.9,6.8c-2.5,1.5-4.8,3.1-6.8,4.8c-2.8-2.4-4.8-3.6-6-3.4c-0.3,0-1,0.6-2.2,1.8
						c-1.2,1.2-1.8,2-1.9,2.3c-0.2,1.3,1,3.3,3.5,6.2c-1.8,2.4-3.4,4.9-4.8,7.5c-3.6-1.1-5.9-1.3-7-0.7C5,32,4.6,32.9,4,34.5
						c-0.6,1.6-0.9,2.6-0.8,2.8c0.3,1.2,2.2,2.6,5.6,4.2c-0.7,2.8-1.2,5.5-1.4,8.2c-3.7,0.3-5.9,0.9-6.6,1.9
						c-0.1,0.2-0.2,1.1-0.2,2.8c0,1.7,0.1,2.7,0.3,3c0.8,1,3,1.6,6.7,1.9c0.3,2.7,1,5.6,1.9,8.5c-3.3,1.7-5.1,3.2-5.4,4.4
						C4,72.3,4.3,73.2,5,74.7c0.7,1.5,1.2,2.4,1.4,2.5c1.1,0.6,3.4,0.3,7-1c1.5,2.5,3.1,4.8,4.7,6.7c-2.5,2.9-3.7,5-3.6,6.2
						c0,0.4,0.6,1.1,1.8,2.2c1.2,1.2,2,1.8,2.4,1.8c1.3,0.1,3.4-1.1,6.3-3.6c2.4,1.9,4.9,3.5,7.4,4.7c-1.1,3.6-1.4,6-0.8,7.2
						c0.2,0.3,1.1,0.7,2.6,1.3c1.6,0.6,2.5,0.8,2.8,0.7c1.2-0.4,2.6-2.3,4.2-5.8c2.5,0.7,5.1,1.1,7.9,1.4c0.3,3.8,0.9,6.1,1.8,7
						c0.3,0.2,1.3,0.3,2.9,0.3c1.6,0,2.6-0.1,3-0.4c1-0.9,1.6-3.2,1.9-7.1c3-0.4,5.8-0.9,8.2-1.8c1.8,3.4,3.3,5.3,4.6,5.7
						c0.4,0.1,1.4-0.2,2.9-0.8c1.5-0.6,2.3-1.1,2.5-1.4c0.6-1.2,0.2-3.6-1.2-7.2c2.5-1.4,4.7-2.9,6.7-4.5c2.9,2.5,4.9,3.8,6.2,3.7
						c0.4,0,1.2-0.6,2.3-1.8c1.1-1.1,1.7-1.9,1.8-2.3c0.1-1.3-1.1-3.4-3.7-6.3c1.8-2.2,3.4-4.6,4.8-7.3c3.6,1.1,6,1.4,7.1,0.7
						c0.3-0.2,0.8-1,1.4-2.6c0.6-1.5,0.8-2.4,0.8-2.8c-0.4-1.2-2.3-2.5-5.7-4.1c0.8-2.8,1.3-5.5,1.5-8.2c3.7-0.3,6-0.9,6.8-1.9
						c0.2-0.2,0.2-1.2,0.2-2.8c0-1.7-0.1-2.6-0.3-2.9c-0.8-1-3-1.6-6.8-1.8c-0.3-3-0.9-5.8-1.7-8.5c3.3-1.7,5.1-3.2,5.4-4.5
						c0.1-0.3-0.2-1.2-0.9-2.8c-0.7-1.6-1.2-2.4-1.4-2.5c-1-0.6-3.3-0.3-6.8,1c-1.3-2.4-2.9-4.7-4.7-6.9c2.4-2.8,3.6-4.8,3.4-6
						c0-0.2-0.7-1-1.8-2.2C89,14.9,88.2,14.3,88,14.3 M53.1,33.8c5.4,0,10,1.9,13.8,5.7c3.8,3.8,5.7,8.4,5.7,13.8
						c0,5.4-1.9,10-5.7,13.8c-3.8,3.8-8.4,5.7-13.8,5.7c-5.4,0-10-1.9-13.8-5.7c-3.8-3.8-5.7-8.4-5.7-13.8c0-5.4,1.9-10,5.7-13.8
						C43.1,35.8,47.7,33.8,53.1,33.8z"/>
				</g>
			</g>
			<g>
				<path id="FlashAICB_Layer_1__Compound_Path__0_Layer0_0_1_STROKES" class="st1" d="M105.7,53.2c0-1.7-0.1-2.6-0.3-2.9
					c-0.8-1-3-1.6-6.8-1.8c-0.3-3-0.9-5.8-1.7-8.5c3.3-1.7,5.1-3.2,5.4-4.5c0.1-0.3-0.2-1.2-0.9-2.8c-0.7-1.6-1.2-2.4-1.4-2.5
					c-1-0.6-3.3-0.3-6.8,1c-1.3-2.4-2.9-4.7-4.7-6.9c2.4-2.8,3.6-4.8,3.4-6c0-0.2-0.7-1-1.8-2.2c-1.2-1.2-1.9-1.8-2.2-1.8
					c-1.2-0.2-3.2,1-6,3.4c-2.3-1.9-4.9-3.5-7.6-5c1.1-3.5,1.3-5.8,0.6-6.8c-0.1-0.2-1-0.6-2.6-1.2c-1.7-0.6-2.6-0.9-2.7-0.8
					c-1.1,0.3-2.5,2.1-4.1,5.4c-2.8-0.8-5.3-1.3-7.8-1.5C57.6,4,57,1.7,56,0.9c-0.3-0.2-1.2-0.3-2.9-0.3c-1.7,0-2.6,0.1-2.9,0.3
					c-1,0.8-1.6,3.1-1.9,6.9c-3,0.3-6.1,0.9-9.4,2c-1.7-3.2-3.2-5-4.4-5.3c-0.2,0-1.1,0.3-2.7,1c-1.6,0.7-2.4,1.2-2.5,1.4
					c-0.6,1.1-0.3,3.3,0.9,6.8c-2.5,1.5-4.8,3.1-6.8,4.8c-2.8-2.4-4.8-3.6-6-3.4c-0.3,0-1,0.6-2.2,1.8c-1.2,1.2-1.8,2-1.9,2.3
					c-0.2,1.3,1,3.3,3.5,6.2c-1.8,2.4-3.4,4.9-4.8,7.5c-3.6-1.1-5.9-1.3-7-0.7C5,32,4.6,32.9,4,34.5c-0.6,1.6-0.9,2.6-0.8,2.8
					c0.3,1.2,2.2,2.6,5.6,4.2c-0.7,2.8-1.2,5.5-1.4,8.2c-3.7,0.3-5.9,0.9-6.6,1.9c-0.1,0.2-0.2,1.1-0.2,2.8c0,1.7,0.1,2.7,0.3,3
					c0.8,1,3,1.6,6.7,1.9c0.3,2.7,1,5.6,1.9,8.5c-3.3,1.7-5.1,3.2-5.4,4.4C4,72.3,4.3,73.2,5,74.7c0.7,1.5,1.2,2.4,1.4,2.5
					c1.1,0.6,3.4,0.3,7-1c1.5,2.5,3.1,4.8,4.7,6.7c-2.5,2.9-3.7,5-3.6,6.2c0,0.4,0.6,1.1,1.8,2.2c1.2,1.2,2,1.8,2.4,1.8
					c1.3,0.1,3.4-1.1,6.3-3.6c2.4,1.9,4.9,3.5,7.4,4.7c-1.1,3.6-1.4,6-0.8,7.2c0.2,0.3,1.1,0.7,2.6,1.3c1.6,0.6,2.5,0.8,2.8,0.7
					c1.2-0.4,2.6-2.3,4.2-5.8c2.5,0.7,5.1,1.1,7.9,1.4c0.3,3.8,0.9,6.1,1.8,7c0.3,0.2,1.3,0.3,2.9,0.3c1.6,0,2.6-0.1,3-0.4
					c1-0.9,1.6-3.2,1.9-7.1c3-0.4,5.8-0.9,8.2-1.8c1.8,3.4,3.3,5.3,4.6,5.7c0.4,0.1,1.4-0.2,2.9-0.8c1.5-0.6,2.3-1.1,2.5-1.4
					c0.6-1.2,0.2-3.6-1.2-7.2c2.5-1.4,4.7-2.9,6.7-4.5c2.9,2.5,4.9,3.8,6.2,3.7c0.4,0,1.2-0.6,2.3-1.8c1.1-1.1,1.7-1.9,1.8-2.3
					c0.1-1.3-1.1-3.4-3.7-6.3c1.8-2.2,3.4-4.6,4.8-7.3c3.6,1.1,6,1.4,7.1,0.7c0.3-0.2,0.8-1,1.4-2.6c0.6-1.5,0.8-2.4,0.8-2.8
					c-0.4-1.2-2.3-2.5-5.7-4.1c0.8-2.8,1.3-5.5,1.5-8.2c3.7-0.3,6-0.9,6.8-1.9C105.6,55.8,105.7,54.9,105.7,53.2z M53.1,72.9
					c-5.4,0-10-1.9-13.8-5.7c-3.8-3.8-5.7-8.4-5.7-13.8c0-5.4,1.9-10,5.7-13.8c3.8-3.8,8.4-5.7,13.8-5.7c5.4,0,10,1.9,13.8,5.7
					c3.8,3.8,5.7,8.4,5.7,13.8c0,5.4-1.9,10-5.7,13.8C63.1,71,58.5,72.9,53.1,72.9z"/>
			</g>
		</g>
	</g>
</g>
<g class="cogSmall" transform="matrix( 0.5, -0.8660125732421875, 0.8660125732421875, 0.5, 173.5,83.8) ">
	<g transform="matrix( 1.8740692138671875, 0, 0, 1.8740692138671875, -1.05,-0.95) ">
		<g transform="matrix( 1, 0, 0, 1, 0,0) ">
			<g>
				<g id="FlashAICB_0_Layer_1__Compound_Path__0_Layer0_0_FILL">
					<path class="st0" d="M38.6,22.6c0-1.2-0.1-2.5-0.4-3.7l3.3-4.5c-0.7-1.8-1.7-3.6-3.1-5.4l-5.5,0.6c-1.9-1.8-4.1-3-6.5-3.8
						l-2.2-5.1c-0.9-0.1-1.9-0.2-3.1-0.2s-2.2,0.1-3.1,0.2l-2.3,5.1c-2.4,0.7-4.6,2-6.5,3.7L3.6,8.9c-1.3,1.7-2.3,3.5-3.1,5.4
						l3.3,4.5c-0.3,1.3-0.4,2.5-0.4,3.7c0,1.2,0.1,2.5,0.4,3.8l-3.3,4.5c0.8,1.9,1.8,3.7,3.1,5.4l5.5-0.7c1.9,1.8,4.1,3,6.5,3.8
						l2.2,5.2l3.1,0.2l3.1-0.2l2.2-5.1c2.4-0.7,4.6-2,6.5-3.8l5.5,0.7c1.4-1.8,2.4-3.6,3.1-5.4l-3.3-4.5
						C38.5,25.1,38.6,23.8,38.6,22.6 M28.6,15.1c2.1,2.1,3.1,4.6,3.1,7.6c0,2.9-1.1,5.4-3.1,7.5c-2.1,2.1-4.6,3.1-7.5,3.1
						c-2.9,0-5.4-1-7.5-3.1c-2.1-2.1-3.1-4.6-3.1-7.5c0-3,1-5.5,3.1-7.5c2.1-2.1,4.6-3.1,7.5-3.1C24,11.9,26.5,13,28.6,15.1z"/>
				</g>
			</g>
			<g>
				<path id="FlashAICB_0_Layer_1__Compound_Path__0_Layer0_0_1_STROKES" class="st1" d="M21,33.2c-2.9,0-5.4-1-7.5-3.1
					c-2.1-2.1-3.1-4.6-3.1-7.5c0-3,1-5.5,3.1-7.5c2.1-2.1,4.6-3.1,7.5-3.1c3,0,5.5,1.1,7.5,3.2c2.1,2.1,3.1,4.6,3.1,7.6
					c0,2.9-1.1,5.4-3.1,7.5C26.5,32.2,24,33.2,21,33.2z M38.6,22.6c0-1.2-0.1-2.5-0.4-3.7l3.3-4.5c-0.7-1.8-1.7-3.6-3.1-5.4
					l-5.5,0.6c-1.9-1.8-4.1-3-6.5-3.8l-2.2-5.1c-0.9-0.1-1.9-0.2-3.1-0.2s-2.2,0.1-3.1,0.2l-2.3,5.1c-2.4,0.7-4.6,2-6.5,3.7L3.6,8.9
					c-1.3,1.7-2.3,3.5-3.1,5.4l3.3,4.5c-0.3,1.3-0.4,2.5-0.4,3.7c0,1.2,0.1,2.5,0.4,3.8l-3.3,4.5c0.8,1.9,1.8,3.7,3.1,5.4l5.5-0.7
					c1.9,1.8,4.1,3,6.5,3.8l2.2,5.2l3.1,0.2l3.1-0.2l2.2-5.1c2.4-0.7,4.6-2,6.5-3.8l5.5,0.7c1.4-1.8,2.4-3.6,3.1-5.4l-3.3-4.5
					C38.5,25.1,38.6,23.8,38.6,22.6z"/>
			</g>
		</g>
	</g>
</g>
<g transform="matrix( 1, 0, 0, 1, 69.95,128) ">
	<g transform="matrix( 2.07464599609375, 0, 0, 2.07464599609375, -1.05,-1.05) ">
		<g transform="matrix( 1, 0, 0, 1, 0,0) ">
			<g>
				<g id="FlashAICB_3_Layer_1__Group__2_0_Layer0_0_MEMBER_0_FILL">
					<path class="st2" d="M200.5,8.5c0-2.2-0.8-4.1-2.4-5.7c-1.6-1.6-3.5-2.3-5.6-2.3h-155c-2.2,0-4.1,0.8-5.6,2.3s-2.4,3.4-2.4,5.7
						v108c0,2.2,0.8,4,2.4,5.7c1.6,1.6,3.4,2.3,5.6,2.3h155c2.2,0,4.1-0.8,5.6-2.3c1.6-1.6,2.4-3.5,2.4-5.7V8.5z"/>
				</g>
			</g>
			<g>
				<path id="FlashAICB_3_Layer_1__Group__2_0_Layer0_0_MEMBER_0_1_STROKES" class="st1" d="M192.5,124.5h-155
					c-2.2,0-4.1-0.8-5.6-2.3c-1.6-1.6-2.4-3.5-2.4-5.7V8.5c0-2.2,0.8-4.1,2.4-5.7s3.4-2.3,5.6-2.3h155c2.2,0,4.1,0.8,5.6,2.3
					c1.6,1.6,2.4,3.4,2.4,5.7v108c0,2.2-0.8,4-2.4,5.7C196.6,123.7,194.7,124.5,192.5,124.5z"/>
			</g>
		</g>
		<g transform="matrix( 1, 0, 0, 1, 0,0) ">
			<g>
				<g id="FlashAICB_3_Layer_1__Group__2_0_Layer0_0_MEMBER_1_FILL">
					<path class="st2" d="M223.5,128.9c1.7,0,3.1-0.6,4.2-1.8c1.2-1.1,1.8-2.5,1.8-4.2v-0.1c0-1.7-0.6-3.1-1.8-4.2
						c-1.2-1.2-2.6-1.8-4.2-1.8H6.4c-1.6,0-3,0.6-4.2,1.8c-1.2,1.2-1.8,2.6-1.8,4.2v0.1c0,1.7,0.6,3.1,1.8,4.2
						c1.2,1.2,2.6,1.8,4.2,1.8H223.5z"/>
				</g>
			</g>
			<g>
				<path id="FlashAICB_3_Layer_1__Group__2_0_Layer0_0_MEMBER_1_1_STROKES" class="st1" d="M223.5,128.9H6.4c-1.6,0-3-0.6-4.2-1.8
					c-1.2-1.1-1.8-2.5-1.8-4.2v-0.1c0-1.7,0.6-3.1,1.8-4.2c1.2-1.2,2.6-1.8,4.2-1.8h217.1c1.6,0,3,0.6,4.2,1.8
					c1.2,1.2,1.8,2.6,1.8,4.2v0.1c0,1.7-0.6,3.1-1.8,4.2C226.6,128.4,225.2,128.9,223.5,128.9z"/>
			</g>
		</g>
	</g>
	<g transform="matrix( 2.07464599609375, 0, 0, 2.07464599609375, -77.8,-120.35) ">
		<g>
			<g id="Computer_0_Layer1_1_FILL">
				<path class="st3" d="M228.6,165.5v-98h-153v98H228.6z"/>
			</g>
		</g>
	</g>
	<g transform="matrix( 2.07464599609375, 0, 0, 2.07464599609375, -77.8,-120.35) ">
		<g>
			<g id="Computer_0_Layer1_2_MEMBER_0_FILL">
				<path class="st0" d="M42.6,182.6c0.4,0.4,0.9,0.6,1.5,0.6h22c0.6,0,1-0.2,1.4-0.6c0.4-0.4,0.6-0.8,0.6-1.4s-0.2-1.1-0.6-1.4
					c-0.4-0.4-0.8-0.6-1.4-0.6H44c-0.6,0-1,0.2-1.5,0.6c-0.4,0.4-0.5,0.9-0.5,1.4S42.2,182.3,42.6,182.6z"/>
			</g>
		</g>
	</g>
	<g transform="matrix( 2.07464599609375, 0, 0, 2.07464599609375, -77.8,-120.35) ">
		<g>
			<g id="Computer_0_Layer1_3_MEMBER_0_FILL">
				<path class="st0" d="M259,183c0.6,0,1-0.2,1.4-0.6c0.4-0.4,0.6-0.8,0.6-1.4s-0.2-1.1-0.6-1.4c-0.4-0.4-0.8-0.6-1.4-0.6h-184
					c-0.6,0-1.1,0.2-1.5,0.6c-0.4,0.4-0.5,0.9-0.5,1.4s0.2,1,0.5,1.4c0.4,0.4,0.9,0.6,1.5,0.6H259z"/>
			</g>
		</g>
	</g>
	<g transform="matrix( 1, 0, 0, 1, 0,0) ">
		<g>
			<g id="Computer_0_Layer0_0_FILL">
				<path class="st3" d="M237,10.4c0-0.5-0.2-0.9-0.6-1.2c-0.3-0.3-0.7-0.5-1.2-0.5s-0.9,0.2-1.2,0.5c-0.3,0.4-0.5,0.8-0.5,1.2
					c0,0.5,0.2,0.9,0.5,1.2c0.4,0.4,0.8,0.6,1.2,0.6s0.9-0.2,1.2-0.6C236.8,11.3,237,10.9,237,10.4z"/>
			</g>
		</g>
	</g>
</g>
<g transform="matrix( 0.52301025390625, 0, 0, 1, 161.5,160.5) ">
	<g transform="matrix( 1, 0, 0, 1, 0,0) ">
		<g>
			<g id="code_line_0_Layer0_0_FILL">
				<path class="st4" d="M227.5,6.2V0H0v6.2H227.5z"/>
			</g>
		</g>
	</g>
</g>
<g transform="matrix( 0.8966064453125, 0, 0, 1, 177.55,174) ">
	<g transform="matrix( 1, 0, 0, 1, 0,0) ">
		<g>
			<g id="code_line_0_Layer0_0_FILL_1_">
				<path class="st4" d="M227.5,6.2V0H0v6.2H227.5z"/>
			</g>
		</g>
	</g>
</g>
<g transform="matrix( 0.523040771484375, 0, 0, 1, 177.55,188) ">
	<g transform="matrix( 1, 0, 0, 1, 0,0) ">
		<g>
			<g id="code_line_0_Layer0_0_FILL_2_">
				<path class="st4" d="M227.5,6.2V0H0v6.2H227.5z"/>
			</g>
		</g>
	</g>
</g>
<g transform="matrix( 0.184600830078125, 0, 0, 1, 161.55,202) ">
	<g transform="matrix( 1, 0, 0, 1, 0,0) ">
		<g>
			<g id="code_line_0_Layer0_0_FILL_3_">
				<path class="st4" d="M227.5,6.2V0H0v6.2H227.5z"/>
			</g>
		</g>
	</g>
</g>
<g transform="matrix( 0.7274017333984375, 0, 0, 1, 161.5,215.5) ">
	<g transform="matrix( 1, 0, 0, 1, 0,0) ">
		<g>
			<g id="code_line_0_Layer0_0_FILL_4_">
				<path class="st4" d="M227.5,6.2V0H0v6.2H227.5z"/>
			</g>
		</g>
	</g>
</g>
<g transform="matrix( 0.52301025390625, 0, 0, 1, 177.55,230) ">
	<g transform="matrix( 1, 0, 0, 1, 0,0) ">
		<g>
			<g id="code_line_0_Layer0_0_FILL_5_">
				<path class="st4" d="M227.5,6.2V0H0v6.2H227.5z"/>
			</g>
		</g>
	</g>
</g>
<g transform="matrix( 0.305450439453125, 0, 0, 1, 177.5,244.55) ">
	<g transform="matrix( 1, 0, 0, 1, 0,0) ">
		<g>
			<g id="code_line_0_Layer0_0_FILL_6_">
				<path class="st4" d="M227.5,6.2V0H0v6.2H227.5z"/>
			</g>
		</g>
	</g>
</g>
<g transform="matrix( 0.0901031494140625, 0, 0, 1, 161.55,258.55) ">
	<g transform="matrix( 1, 0, 0, 1, 0,0) ">
		<g>
			<g id="code_line_0_Layer0_0_FILL_7_">
				<path class="st4" d="M227.5,6.2V0H0v6.2H227.5z"/>
			</g>
		</g>
	</g>
</g>
<g transform="matrix( 0.459228515625, 0, 0, 1, 161.55,273.05) ">
	<g transform="matrix( 1, 0, 0, 1, 0,0) ">
		<g>
			<g id="code_line_0_Layer0_0_FILL_8_">
				<path class="st4" d="M227.5,6.2V0H0v6.2H227.5z"/>
			</g>
		</g>
	</g>
</g>
<g transform="matrix( 0.8702392578125, 0, 0, 1, 161.5,287.55) ">
	<g transform="matrix( 1, 0, 0, 1, 0,0) ">
		<g>
			<g id="code_line_0_Layer0_0_FILL_9_">
				<path class="st4" d="M227.5,6.2V0H0v6.2H227.5z"/>
			</g>
		</g>
	</g>
</g>
<g transform="matrix( 0.468353271484375, 0, 0, 1, 161.35,302.55) ">
	<g transform="matrix( 1, 0, 0, 1, 0,0) ">
		<g>
			<g id="code_line_0_Layer0_0_FILL_10_">
				<path class="st4" d="M227.5,6.2V0H0v6.2H227.5z"/>
			</g>
		</g>
	</g>
</g>
<g class="star1">
	<path class="st5" d="M527.2,102.8c2.8,0,5.1-2.3,5.1-5.1V85.1c0-2.8-2.3-5.1-5.1-5.1s-5.1,2.3-5.1,5.1v12.6
		C522.1,100.5,524.4,102.8,527.2,102.8z"/>
	<path class="st5" d="M527.2,110.6c-2.8,0-5.1,2.3-5.1,5.1v12.6c0,2.8,2.3,5.1,5.1,5.1s5.1-2.3,5.1-5.1v-12.6
		C532.3,112.9,530,110.6,527.2,110.6z"/>
	<path class="st5" d="M547.9,101.1h-12.6c-2.8,0-5.1,2.3-5.1,5.1s2.3,5.1,5.1,5.1h12.6c2.8,0,5.1-2.3,5.1-5.1
		S550.7,101.1,547.9,101.1z"/>
	<path class="st5" d="M518.4,101.1h-12.6c-2.8,0-5.1,2.3-5.1,5.1s2.3,5.1,5.1,5.1h12.6c2.8,0,5.1-2.3,5.1-5.1
		S521.2,101.1,518.4,101.1z"/>
</g>
<g class="star2">
	<path class="st5" d="M53.6,298.7c2.8,0,5.1-2.3,5.1-5.1V281c0-2.8-2.3-5.1-5.1-5.1s-5.1,2.3-5.1,5.1v12.6
		C48.5,296.4,50.8,298.7,53.6,298.7z"/>
	<path class="st5" d="M53.6,306.4c-2.8,0-5.1,2.3-5.1,5.1v12.6c0,2.8,2.3,5.1,5.1,5.1s5.1-2.3,5.1-5.1v-12.6
		C58.7,308.7,56.4,306.4,53.6,306.4z"/>
	<path class="st5" d="M74.3,297H61.7c-2.8,0-5.1,2.3-5.1,5.1s2.3,5.1,5.1,5.1h12.6c2.8,0,5.1-2.3,5.1-5.1S77.1,297,74.3,297z"/>
	<path class="st5" d="M44.9,297H32.3c-2.8,0-5.1,2.3-5.1,5.1s2.3,5.1,5.1,5.1h12.6c2.8,0,5.1-2.3,5.1-5.1S47.7,297,44.9,297z"/>
</g>
<g class="codeBox">
	<rect x="360.1" y="215.5" class="st6" width="150.9" height="108"/>
	<path class="st7" d="M485.9,241.8H380.1c-3.1,0-5.6-2.5-5.6-5.7v0c0-3.1,2.5-5.6,5.6-5.6h105.8c3.1,0,5.6,2.5,5.6,5.6v0
		C491.5,239.3,489,241.8,485.9,241.8z"/>
	<path class="st7" d="M465.6,260.3h-86.1c-2.8,0-5.1-2.3-5.1-5.1v-1.1c0-2.8,2.3-5.1,5.1-5.1h86.1c2.8,0,5.1,2.3,5.1,5.1v1.1
		C470.8,258,468.4,260.3,465.6,260.3z"/>
	<path class="st7" d="M393.1,278.5h-13c-3.1,0-5.6-2.5-5.6-5.6l0,0c0-3.1,2.5-5.6,5.6-5.6h13c3.1,0,5.6,2.5,5.6,5.6l0,0
		C398.8,275.9,396.2,278.5,393.1,278.5z"/>
</g>
<rect x="444" y="276.5" class="st8 box2" width="109" height="34.4"/>
<rect x="444" y="230.4" class="st9 box1" width="109" height="34.4"/>
</svg>
